<mxfile host="Electron" agent="Mozilla/5.0 (Windows NT 10.0; Win64; x64) AppleWebKit/537.36 (KHTML, like Gecko) draw.io/28.0.6 Chrome/138.0.7204.100 Electron/37.2.3 Safari/537.36" version="28.0.6">
  <diagram name="第 1 页" id="VX8x2q7U5yT6BQhmhuAg">
    <mxGraphModel dx="67" dy="43" grid="1" gridSize="1.1810999999999998" guides="1" tooltips="1" connect="1" arrows="1" fold="1" page="1" pageScale="1" pageWidth="35" pageHeight="31" background="#464647" math="0" shadow="0">
      <root>
        <mxCell id="0" />
        <mxCell id="1" parent="0" />
        <mxCell id="b_M9QXe0s635dm8O5EwX-4" value="" style="endArrow=none;html=1;rounded=0;strokeColor=#EBEBEB;strokeWidth=1.9685;startArrow=oval;startFill=1;startSize=1.9685;" parent="1" edge="1">
          <mxGeometry width="50" height="50" relative="1" as="geometry">
            <mxPoint x="3.7300000000000004" y="23.54" as="sourcePoint" />
            <mxPoint x="30.73" y="23.54" as="targetPoint" />
          </mxGeometry>
        </mxCell>
        <mxCell id="b_M9QXe0s635dm8O5EwX-5" value="" style="endArrow=none;html=1;rounded=0;strokeColor=#EBEBEB;strokeWidth=1.9685;" parent="1" edge="1">
          <mxGeometry width="50" height="50" relative="1" as="geometry">
            <mxPoint x="3.540000000000001" y="23.509999999999998" as="sourcePoint" />
            <mxPoint x="21.73" y="3.5399999999999996" as="targetPoint" />
          </mxGeometry>
        </mxCell>
        <mxCell id="vB7HMkJseP0Ak8gnfyoB-1" value="" style="curved=1;endArrow=none;html=1;rounded=0;endFill=0;strokeColor=#EBEBEB;strokeWidth=1.9685;" edge="1" parent="1">
          <mxGeometry width="50" height="50" relative="1" as="geometry">
            <mxPoint x="17.73" y="22.79" as="sourcePoint" />
            <mxPoint x="12.73" y="13.79" as="targetPoint" />
            <Array as="points">
              <mxPoint x="17.73" y="17.349999999999998" />
            </Array>
          </mxGeometry>
        </mxCell>
      </root>
    </mxGraphModel>
  </diagram>
</mxfile>
